{
	"asset":{
		"generator":"Khronos glTF Blender I/O v4.2.69",
		"version":"2.0"
	},
	"scene":0,
	"scenes":[
		{
			"name":"Scene",
			"nodes":[
				1,
				2
			]
		}
	],
	"nodes":[
		{
			"mesh":0,
			"name":"icing"
		},
		{
			"children":[
				0
			],
			"mesh":1,
			"name":"Donut",
			"scale":[
				0.11225032806396484,
				0.11225032806396484,
				0.11225032806396484
			],
			"translation":[
				0.00941208004951477,
				0.03621514141559601,
				-0.09519395232200623
			]
		},
		{
			"mesh":2,
			"name":"Plane",
			"scale":[
				0.6807749271392822,
				3.2207720279693604,
				0.6807747483253479
			]
		}
	],
	"materials":[
		{
			"doubleSided":true,
			"name":"Material",
			"pbrMetallicRoughness":{
				"baseColorFactor":[
					0.8005527257919312,
					0.31768909096717834,
					0.7061859369277954,
					1
				],
				"metallicFactor":0,
				"roughnessFactor":0.3024054765701294
			}
		},
		{
			"doubleSided":true,
			"name":"Material.001",
			"pbrMetallicRoughness":{
				"baseColorTexture":{
					"index":0
				},
				"metallicFactor":0,
				"roughnessFactor":0.5
			}
		},
		{
			"doubleSided":true,
			"name":"Material.002",
			"pbrMetallicRoughness":{
				"baseColorTexture":{
					"index":1
				},
				"metallicRoughnessTexture":{
					"index":2
				}
			}
		}
	],
	"meshes":[
		{
			"name":"Torus.002",
			"primitives":[
				{
					"attributes":{
						"POSITION":0,
						"NORMAL":1,
						"TEXCOORD_0":2
					},
					"indices":3,
					"material":0
				}
			]
		},
		{
			"name":"Torus.003",
			"primitives":[
				{
					"attributes":{
						"POSITION":4,
						"NORMAL":5,
						"TEXCOORD_0":6
					},
					"indices":7,
					"material":1
				}
			]
		},
		{
			"name":"Plane",
			"primitives":[
				{
					"attributes":{
						"POSITION":8,
						"NORMAL":9,
						"TEXCOORD_0":10
					},
					"indices":11,
					"material":2
				}
			]
		}
	],
	"textures":[
		{
			"sampler":0,
			"source":0
		},
		{
			"sampler":0,
			"source":1
		},
		{
			"sampler":0,
			"source":2
		}
	],
	"images":[
		{
			"mimeType":"image/png",
			"name":"donut base",
			"uri":"donut%20base.png"
		},
		{
			"mimeType":"image/jpeg",
			"name":"Poliigon_StoneQuartzite_8060_BaseColor",
			"uri":"Poliigon_StoneQuartzite_8060_BaseColor.jpg"
		},
		{
			"mimeType":"image/png",
			"name":"Poliigon_StoneQuartzite_8060_Metallic-Poliigon_StoneQuartzite_8060_Roughness",
			"uri":"Poliigon_StoneQuartzite_8060_Metallic-Poliigon_StoneQuartzite_8060_Roughness.png"
		}
	],
	"accessors":[
		{
			"bufferView":0,
			"componentType":5126,
			"count":12997,
			"max":[
				0.6159643530845642,
				0.23633162677288055,
				0.6222590208053589
			],
			"min":[
				-0.6317413449287415,
				-0.26193252205848694,
				-0.613364577293396
			],
			"type":"VEC3"
		},
		{
			"bufferView":1,
			"componentType":5126,
			"count":12997,
			"type":"VEC3"
		},
		{
			"bufferView":2,
			"componentType":5126,
			"count":12997,
			"type":"VEC2"
		},
		{
			"bufferView":3,
			"componentType":5123,
			"count":75744,
			"type":"SCALAR"
		},
		{
			"bufferView":4,
			"componentType":5126,
			"count":429,
			"max":[
				0.6365063190460205,
				0.2495344877243042,
				0.6372519731521606
			],
			"min":[
				-0.6375374794006348,
				-0.2564122974872589,
				-0.6360360980033875
			],
			"type":"VEC3"
		},
		{
			"bufferView":5,
			"componentType":5126,
			"count":429,
			"type":"VEC3"
		},
		{
			"bufferView":6,
			"componentType":5126,
			"count":429,
			"type":"VEC2"
		},
		{
			"bufferView":7,
			"componentType":5123,
			"count":2304,
			"type":"SCALAR"
		},
		{
			"bufferView":8,
			"componentType":5126,
			"count":4,
			"max":[
				1,
				0,
				1
			],
			"min":[
				-1,
				0,
				-1
			],
			"type":"VEC3"
		},
		{
			"bufferView":9,
			"componentType":5126,
			"count":4,
			"type":"VEC3"
		},
		{
			"bufferView":10,
			"componentType":5126,
			"count":4,
			"type":"VEC2"
		},
		{
			"bufferView":11,
			"componentType":5123,
			"count":6,
			"type":"SCALAR"
		}
	],
	"bufferViews":[
		{
			"buffer":0,
			"byteLength":155964,
			"byteOffset":0,
			"target":34962
		},
		{
			"buffer":0,
			"byteLength":155964,
			"byteOffset":155964,
			"target":34962
		},
		{
			"buffer":0,
			"byteLength":103976,
			"byteOffset":311928,
			"target":34962
		},
		{
			"buffer":0,
			"byteLength":151488,
			"byteOffset":415904,
			"target":34963
		},
		{
			"buffer":0,
			"byteLength":5148,
			"byteOffset":567392,
			"target":34962
		},
		{
			"buffer":0,
			"byteLength":5148,
			"byteOffset":572540,
			"target":34962
		},
		{
			"buffer":0,
			"byteLength":3432,
			"byteOffset":577688,
			"target":34962
		},
		{
			"buffer":0,
			"byteLength":4608,
			"byteOffset":581120,
			"target":34963
		},
		{
			"buffer":0,
			"byteLength":48,
			"byteOffset":585728,
			"target":34962
		},
		{
			"buffer":0,
			"byteLength":48,
			"byteOffset":585776,
			"target":34962
		},
		{
			"buffer":0,
			"byteLength":32,
			"byteOffset":585824,
			"target":34962
		},
		{
			"buffer":0,
			"byteLength":12,
			"byteOffset":585856,
			"target":34963
		}
	],
	"samplers":[
		{
			"magFilter":9729,
			"minFilter":9987
		}
	],
	"buffers":[
		{
			"byteLength":585868,
			"uri":"donut.bin"
		}
	]
}
