{
	"asset":{
		"generator":"Khronos glTF Blender I/O v4.2.69",
		"version":"2.0"
	},
	"scene":0,
	"scenes":[
		{
			"name":"Scene",
			"nodes":[
				0,
				1
			]
		}
	],
	"nodes":[
		{
			"camera":0,
			"name":"Camera",
			"translation":[
				0.2335624098777771,
				0.8136788010597229,
				7.337150573730469
			]
		},
		{
			"mesh":0,
			"name":"Nozzle",
			"rotation":[
				-0.3800392746925354,
				0.5529465675354004,
				-0.5528522729873657,
				0.4941403567790985
			],
			"scale":[
				0.22699998319149017,
				1,
				0.22699999809265137
			],
			"translation":[
				1.24036705493927,
				0.6187120676040649,
				4.472507953643799
			]
		}
	],
	"cameras":[
		{
			"name":"Camera.001",
			"perspective":{
				"aspectRatio":1.7777777777777777,
				"yfov":1,
				"zfar":100,
				"znear":0.10000000149011612
			},
			"type":"perspective"
		}
	],
	"materials":[
		{
			"doubleSided":true,
			"name":"Box",
			"pbrMetallicRoughness":{
				"baseColorTexture":{
					"index":0
				},
				"metallicFactor":0,
				"roughnessFactor":0.5
			}
		}
	],
	"meshes":[
		{
			"name":"B\u00e9zierCircle.003",
			"primitives":[
				{
					"attributes":{
						"POSITION":0,
						"NORMAL":1,
						"TEXCOORD_0":2
					},
					"indices":3,
					"material":0
				}
			]
		}
	],
	"textures":[
		{
			"sampler":0,
			"source":0
		}
	],
	"images":[
		{
			"mimeType":"image/jpeg",
			"name":"carbonFiber",
			"uri":"carbonFiber.jpg"
		}
	],
	"accessors":[
		{
			"bufferView":0,
			"componentType":5126,
			"count":2204,
			"max":[
				1.3215861320495605,
				0.15000009536743164,
				1.3215861320495605
			],
			"min":[
				-1.3215861320495605,
				-3.001970052719116,
				-1.3215861320495605
			],
			"type":"VEC3"
		},
		{
			"bufferView":1,
			"componentType":5126,
			"count":2204,
			"type":"VEC3"
		},
		{
			"bufferView":2,
			"componentType":5126,
			"count":2204,
			"type":"VEC2"
		},
		{
			"bufferView":3,
			"componentType":5123,
			"count":11802,
			"type":"SCALAR"
		}
	],
	"bufferViews":[
		{
			"buffer":0,
			"byteLength":26448,
			"byteOffset":0,
			"target":34962
		},
		{
			"buffer":0,
			"byteLength":26448,
			"byteOffset":26448,
			"target":34962
		},
		{
			"buffer":0,
			"byteLength":17632,
			"byteOffset":52896,
			"target":34962
		},
		{
			"buffer":0,
			"byteLength":23604,
			"byteOffset":70528,
			"target":34963
		}
	],
	"samplers":[
		{
			"magFilter":9728,
			"minFilter":9984
		}
	],
	"buffers":[
		{
			"byteLength":94132,
			"uri":"hose.bin"
		}
	]
}
