{
	"asset":{
		"generator":"Khronos glTF Blender I/O v4.3.47",
		"version":"2.0"
	},
	"scene":0,
	"scenes":[
		{
			"name":"Scene",
			"nodes":[
				0
			]
		}
	],
	"nodes":[
		{
			"mesh":0,
			"name":"Nozzle",
			"scale":[
				0.22699999809265137,
				1,
				0.22699999809265137
			],
			"translation":[
				0,
				1.25,
				0
			]
		}
	],
	"materials":[
		{
			"doubleSided":true,
			"name":"Material.001",
			"pbrMetallicRoughness":{
				"baseColorFactor":[
					0.13785099983215332,
					0.13785099983215332,
					0.13785099983215332,
					1
				],
				"metallicFactor":0.5,
				"roughnessFactor":0.5
			}
		}
	],
	"meshes":[
		{
			"name":"B\u00e9zierCircle.001",
			"primitives":[
				{
					"attributes":{
						"POSITION":0,
						"NORMAL":1,
						"TEXCOORD_0":2
					},
					"indices":3,
					"material":0
				}
			]
		}
	],
	"accessors":[
		{
			"bufferView":0,
			"componentType":5126,
			"count":2204,
			"max":[
				1.3215861320495605,
				0.15000009536743164,
				1.3215861320495605
			],
			"min":[
				-1.3215861320495605,
				-3.001970052719116,
				-1.3215861320495605
			],
			"type":"VEC3"
		},
		{
			"bufferView":1,
			"componentType":5126,
			"count":2204,
			"type":"VEC3"
		},
		{
			"bufferView":2,
			"componentType":5126,
			"count":2204,
			"type":"VEC2"
		},
		{
			"bufferView":3,
			"componentType":5123,
			"count":11802,
			"type":"SCALAR"
		}
	],
	"bufferViews":[
		{
			"buffer":0,
			"byteLength":26448,
			"byteOffset":0,
			"target":34962
		},
		{
			"buffer":0,
			"byteLength":26448,
			"byteOffset":26448,
			"target":34962
		},
		{
			"buffer":0,
			"byteLength":17632,
			"byteOffset":52896,
			"target":34962
		},
		{
			"buffer":0,
			"byteLength":23604,
			"byteOffset":70528,
			"target":34963
		}
	],
	"buffers":[
		{
			"byteLength":94132,
			"uri":"Powerwasher_Hose.bin"
		}
	]
}
