{
	"asset":{
		"generator":"Khronos glTF Blender I/O v4.2.69",
		"version":"2.0"
	},
	"scene":0,
	"scenes":[
		{
			"name":"Scene",
			"nodes":[
				0,
				1,
				2
			]
		}
	],
	"nodes":[
		{
			"mesh":0,
			"name":"floor",
			"scale":[
				146.5169219970703,
				0,
				144.2747039794922
			],
			"translation":[
				0,
				-0.6982654929161072,
				0
			]
		},
		{
			"camera":0,
			"name":"Camera",
			"rotation":[
				-0.12923993170261383,
				0.3883131444454193,
				0.05436801537871361,
				0.9107987284660339
			],
			"translation":[
				7.531991481781006,
				2.3524913787841797,
				6.634784698486328
			]
		},
		{
			"mesh":1,
			"name":"Nozzle",
			"rotation":[
				-0.18385834991931915,
				-0.42205843329429626,
				0.6382122039794922,
				0.6170478463172913
			],
			"scale":[
				0.22700001299381256,
				1,
				0.22699999809265137
			],
			"translation":[
				6.263007164001465,
				1.3392189741134644,
				3.377122402191162
			]
		}
	],
	"cameras":[
		{
			"name":"Camera",
			"perspective":{
				"aspectRatio":1.7777777777777777,
				"yfov":0.9011817061778838,
				"zfar":100,
				"znear":0.10000000149011612
			},
			"type":"perspective"
		}
	],
	"materials":[
		{
			"doubleSided":true,
			"name":"Material",
			"pbrMetallicRoughness":{
				"baseColorFactor":[
					0.800000011920929,
					0.800000011920929,
					0.800000011920929,
					1
				],
				"metallicFactor":0,
				"roughnessFactor":0.5
			}
		},
		{
			"doubleSided":true,
			"name":"Material.001",
			"pbrMetallicRoughness":{
				"baseColorFactor":[
					0.13785099983215332,
					0.13785099983215332,
					0.13785099983215332,
					1
				],
				"metallicFactor":0.5,
				"roughnessFactor":0.5
			}
		}
	],
	"meshes":[
		{
			"name":"Cube",
			"primitives":[
				{
					"attributes":{
						"POSITION":0,
						"NORMAL":1,
						"TEXCOORD_0":2
					},
					"indices":3,
					"material":0
				}
			]
		},
		{
			"name":"B\u00e9zierCircle.001",
			"primitives":[
				{
					"attributes":{
						"POSITION":4,
						"NORMAL":5,
						"TEXCOORD_0":6
					},
					"indices":7,
					"material":1
				}
			]
		}
	],
	"accessors":[
		{
			"bufferView":0,
			"componentType":5126,
			"count":24,
			"max":[
				1,
				1,
				1
			],
			"min":[
				-1,
				-1,
				-1
			],
			"type":"VEC3"
		},
		{
			"bufferView":1,
			"componentType":5126,
			"count":24,
			"type":"VEC3"
		},
		{
			"bufferView":2,
			"componentType":5126,
			"count":24,
			"type":"VEC2"
		},
		{
			"bufferView":3,
			"componentType":5123,
			"count":36,
			"type":"SCALAR"
		},
		{
			"bufferView":4,
			"componentType":5126,
			"count":2204,
			"max":[
				1.3215861320495605,
				0.15000009536743164,
				1.3215861320495605
			],
			"min":[
				-1.3215861320495605,
				-3.001970052719116,
				-1.3215861320495605
			],
			"type":"VEC3"
		},
		{
			"bufferView":5,
			"componentType":5126,
			"count":2204,
			"type":"VEC3"
		},
		{
			"bufferView":6,
			"componentType":5126,
			"count":2204,
			"type":"VEC2"
		},
		{
			"bufferView":7,
			"componentType":5123,
			"count":11802,
			"type":"SCALAR"
		}
	],
	"bufferViews":[
		{
			"buffer":0,
			"byteLength":288,
			"byteOffset":0,
			"target":34962
		},
		{
			"buffer":0,
			"byteLength":288,
			"byteOffset":288,
			"target":34962
		},
		{
			"buffer":0,
			"byteLength":192,
			"byteOffset":576,
			"target":34962
		},
		{
			"buffer":0,
			"byteLength":72,
			"byteOffset":768,
			"target":34963
		},
		{
			"buffer":0,
			"byteLength":26448,
			"byteOffset":840,
			"target":34962
		},
		{
			"buffer":0,
			"byteLength":26448,
			"byteOffset":27288,
			"target":34962
		},
		{
			"buffer":0,
			"byteLength":17632,
			"byteOffset":53736,
			"target":34962
		},
		{
			"buffer":0,
			"byteLength":23604,
			"byteOffset":71368,
			"target":34963
		}
	],
	"buffers":[
		{
			"byteLength":94972,
			"uri":"upanje.bin"
		}
	]
}
