{
	"asset":{
		"generator":"Khronos glTF Blender I/O v4.2.69",
		"version":"2.0"
	},
	"scene":0,
	"scenes":[
		{
			"name":"Scene",
			"nodes":[
				0,
				2,
				3,
				4,
				5,
				6
			]
		}
	],
	"nodes":[
		{
			"mesh":0,
			"name":"Floor",
			"scale":[
				1.6724928617477417,
				6.12985897064209,
				1.156672477722168
			]
		},
		{
			"mesh":1,
			"name":"Nozzle",
			"rotation":[
				-0.38003939390182495,
				0.5529465079307556,
				-0.5528522729873657,
				0.49414023756980896
			],
			"scale":[
				0.0686967521905899,
				0.30262887477874756,
				0.0686967596411705
			],
			"translation":[
				0.746979832649231,
				-0.1949671357870102,
				-1.2740870714187622
			]
		},
		{
			"camera":0,
			"children":[
				1
			],
			"name":"Camera",
			"translation":[
				0.2335624098777771,
				0.8136788010597229,
				7.337150573730469
			]
		},
		{
			"mesh":2,
			"name":"Floor.001",
			"rotation":[
				-0.5,
				-0.5,
				-0.5,
				0.5
			],
			"scale":[
				1.6724928617477417,
				6.12985897064209,
				1.156672477722168
			],
			"translation":[
				-17.49431037902832,
				0,
				1.3209422826766968
			]
		},
		{
			"mesh":3,
			"name":"Floor.002",
			"rotation":[
				-0.5,
				-0.5,
				-0.5,
				0.5
			],
			"scale":[
				1.6724928617477417,
				6.12985897064209,
				1.156672477722168
			],
			"translation":[
				17.808238983154297,
				0,
				1.3209422826766968
			]
		},
		{
			"mesh":4,
			"name":"Floor.003",
			"rotation":[
				0,
				0.7071068286895752,
				0.7071068286895752,
				0
			],
			"scale":[
				2.257608652114868,
				6.129858493804932,
				1.1566723585128784
			],
			"translation":[
				1.470022201538086,
				0,
				11.206605911254883
			]
		},
		{
			"mesh":5,
			"name":"Floor.004",
			"rotation":[
				0,
				0.7071068286895752,
				0.7071068286895752,
				0
			],
			"scale":[
				2.257608652114868,
				6.129858493804932,
				1.1566723585128784
			],
			"translation":[
				1.470022201538086,
				0,
				-12.873889923095703
			]
		}
	],
	"cameras":[
		{
			"name":"Camera.001",
			"perspective":{
				"aspectRatio":1.7777777777777777,
				"yfov":1,
				"zfar":100,
				"znear":0.10000000149011612
			},
			"type":"perspective"
		}
	],
	"materials":[
		{
			"doubleSided":true,
			"name":"Floor",
			"pbrMetallicRoughness":{
				"baseColorTexture":{
					"index":0
				},
				"metallicFactor":0,
				"roughnessFactor":0.5
			}
		},
		{
			"doubleSided":true,
			"name":"Box",
			"pbrMetallicRoughness":{
				"baseColorTexture":{
					"index":1
				},
				"metallicFactor":0,
				"roughnessFactor":0.5
			}
		},
		{
			"doubleSided":true,
			"name":"Floor.001",
			"pbrMetallicRoughness":{
				"baseColorTexture":{
					"index":2
				},
				"metallicFactor":0,
				"roughnessFactor":0.5
			}
		},
		{
			"doubleSided":true,
			"name":"Floor.002",
			"pbrMetallicRoughness":{
				"baseColorTexture":{
					"index":3
				},
				"metallicFactor":0,
				"roughnessFactor":0.5
			}
		},
		{
			"doubleSided":true,
			"name":"Floor.003",
			"pbrMetallicRoughness":{
				"baseColorTexture":{
					"index":4
				},
				"metallicFactor":0,
				"roughnessFactor":0.5
			}
		},
		{
			"doubleSided":true,
			"name":"Floor.004",
			"pbrMetallicRoughness":{
				"baseColorTexture":{
					"index":5
				},
				"metallicFactor":0,
				"roughnessFactor":0.5
			}
		}
	],
	"meshes":[
		{
			"name":"Floor",
			"primitives":[
				{
					"attributes":{
						"POSITION":0,
						"NORMAL":1,
						"TEXCOORD_0":2
					},
					"indices":3,
					"material":0
				}
			]
		},
		{
			"name":"B\u00e9zierCircle.003",
			"primitives":[
				{
					"attributes":{
						"POSITION":4,
						"NORMAL":5,
						"TEXCOORD_0":6
					},
					"indices":7,
					"material":1
				}
			]
		},
		{
			"name":"Floor.001",
			"primitives":[
				{
					"attributes":{
						"POSITION":8,
						"NORMAL":9,
						"TEXCOORD_0":10
					},
					"indices":3,
					"material":2
				}
			]
		},
		{
			"name":"Floor.002",
			"primitives":[
				{
					"attributes":{
						"POSITION":11,
						"NORMAL":12,
						"TEXCOORD_0":13
					},
					"indices":3,
					"material":3
				}
			]
		},
		{
			"name":"Floor.003",
			"primitives":[
				{
					"attributes":{
						"POSITION":14,
						"NORMAL":15,
						"TEXCOORD_0":16
					},
					"indices":3,
					"material":4
				}
			]
		},
		{
			"name":"Floor.004",
			"primitives":[
				{
					"attributes":{
						"POSITION":17,
						"NORMAL":18,
						"TEXCOORD_0":19
					},
					"indices":3,
					"material":5
				}
			]
		}
	],
	"textures":[
		{
			"sampler":0,
			"source":0
		},
		{
			"sampler":0,
			"source":1
		},
		{
			"sampler":0,
			"source":0
		},
		{
			"sampler":0,
			"source":0
		},
		{
			"sampler":0,
			"source":0
		},
		{
			"sampler":0,
			"source":0
		}
	],
	"images":[
		{
			"mimeType":"image/jpeg",
			"name":"Floor",
			"uri":"Floor.jpg"
		},
		{
			"mimeType":"image/jpeg",
			"name":"carbonFiber",
			"uri":"carbonFiber.jpg"
		}
	],
	"accessors":[
		{
			"bufferView":0,
			"componentType":5126,
			"count":4,
			"max":[
				10,
				0,
				10
			],
			"min":[
				-10,
				0,
				-10
			],
			"type":"VEC3"
		},
		{
			"bufferView":1,
			"componentType":5126,
			"count":4,
			"type":"VEC3"
		},
		{
			"bufferView":2,
			"componentType":5126,
			"count":4,
			"type":"VEC2"
		},
		{
			"bufferView":3,
			"componentType":5123,
			"count":6,
			"type":"SCALAR"
		},
		{
			"bufferView":4,
			"componentType":5126,
			"count":2204,
			"max":[
				1.3215861320495605,
				0.15000009536743164,
				1.3215861320495605
			],
			"min":[
				-1.3215861320495605,
				-3.001970052719116,
				-1.3215861320495605
			],
			"type":"VEC3"
		},
		{
			"bufferView":5,
			"componentType":5126,
			"count":2204,
			"type":"VEC3"
		},
		{
			"bufferView":6,
			"componentType":5126,
			"count":2204,
			"type":"VEC2"
		},
		{
			"bufferView":7,
			"componentType":5123,
			"count":11802,
			"type":"SCALAR"
		},
		{
			"bufferView":8,
			"componentType":5126,
			"count":4,
			"max":[
				10,
				0,
				10
			],
			"min":[
				-10,
				0,
				-10
			],
			"type":"VEC3"
		},
		{
			"bufferView":9,
			"componentType":5126,
			"count":4,
			"type":"VEC3"
		},
		{
			"bufferView":10,
			"componentType":5126,
			"count":4,
			"type":"VEC2"
		},
		{
			"bufferView":11,
			"componentType":5126,
			"count":4,
			"max":[
				10,
				0,
				10
			],
			"min":[
				-10,
				0,
				-10
			],
			"type":"VEC3"
		},
		{
			"bufferView":12,
			"componentType":5126,
			"count":4,
			"type":"VEC3"
		},
		{
			"bufferView":13,
			"componentType":5126,
			"count":4,
			"type":"VEC2"
		},
		{
			"bufferView":14,
			"componentType":5126,
			"count":4,
			"max":[
				10,
				0,
				10
			],
			"min":[
				-10,
				0,
				-10
			],
			"type":"VEC3"
		},
		{
			"bufferView":15,
			"componentType":5126,
			"count":4,
			"type":"VEC3"
		},
		{
			"bufferView":16,
			"componentType":5126,
			"count":4,
			"type":"VEC2"
		},
		{
			"bufferView":17,
			"componentType":5126,
			"count":4,
			"max":[
				10,
				0,
				10
			],
			"min":[
				-10,
				0,
				-10
			],
			"type":"VEC3"
		},
		{
			"bufferView":18,
			"componentType":5126,
			"count":4,
			"type":"VEC3"
		},
		{
			"bufferView":19,
			"componentType":5126,
			"count":4,
			"type":"VEC2"
		}
	],
	"bufferViews":[
		{
			"buffer":0,
			"byteLength":48,
			"byteOffset":0,
			"target":34962
		},
		{
			"buffer":0,
			"byteLength":48,
			"byteOffset":48,
			"target":34962
		},
		{
			"buffer":0,
			"byteLength":32,
			"byteOffset":96,
			"target":34962
		},
		{
			"buffer":0,
			"byteLength":12,
			"byteOffset":128,
			"target":34963
		},
		{
			"buffer":0,
			"byteLength":26448,
			"byteOffset":140,
			"target":34962
		},
		{
			"buffer":0,
			"byteLength":26448,
			"byteOffset":26588,
			"target":34962
		},
		{
			"buffer":0,
			"byteLength":17632,
			"byteOffset":53036,
			"target":34962
		},
		{
			"buffer":0,
			"byteLength":23604,
			"byteOffset":70668,
			"target":34963
		},
		{
			"buffer":0,
			"byteLength":48,
			"byteOffset":94272,
			"target":34962
		},
		{
			"buffer":0,
			"byteLength":48,
			"byteOffset":94320,
			"target":34962
		},
		{
			"buffer":0,
			"byteLength":32,
			"byteOffset":94368,
			"target":34962
		},
		{
			"buffer":0,
			"byteLength":48,
			"byteOffset":94400,
			"target":34962
		},
		{
			"buffer":0,
			"byteLength":48,
			"byteOffset":94448,
			"target":34962
		},
		{
			"buffer":0,
			"byteLength":32,
			"byteOffset":94496,
			"target":34962
		},
		{
			"buffer":0,
			"byteLength":48,
			"byteOffset":94528,
			"target":34962
		},
		{
			"buffer":0,
			"byteLength":48,
			"byteOffset":94576,
			"target":34962
		},
		{
			"buffer":0,
			"byteLength":32,
			"byteOffset":94624,
			"target":34962
		},
		{
			"buffer":0,
			"byteLength":48,
			"byteOffset":94656,
			"target":34962
		},
		{
			"buffer":0,
			"byteLength":48,
			"byteOffset":94704,
			"target":34962
		},
		{
			"buffer":0,
			"byteLength":32,
			"byteOffset":94752,
			"target":34962
		}
	],
	"samplers":[
		{
			"magFilter":9728,
			"minFilter":9984
		}
	],
	"buffers":[
		{
			"byteLength":94784,
			"uri":"hope.bin"
		}
	]
}
