{
	"asset":{
		"generator":"Khronos glTF Blender I/O v4.2.69",
		"version":"2.0"
	},
	"scene":0,
	"scenes":[
		{
			"name":"Scene",
			"nodes":[
				3
			]
		}
	],
	"nodes":[
		{
			"mesh":0,
			"name":"Floor",
			"scale":[
				1.6724928617477417,
				6.12985897064209,
				1.156672477722168
			]
		},
		{
			"mesh":1,
			"name":"Nozzle",
			"rotation":[
				-0.3800393044948578,
				0.5529465079307556,
				-0.5528522729873657,
				0.49414029717445374
			],
			"scale":[
				0.22699998319149017,
				1,
				0.22699999809265137
			],
			"translation":[
				1.0068047046661377,
				-0.19496728479862213,
				-2.86464262008667
			]
		},
		{
			"camera":0,
			"children":[
				1
			],
			"name":"Camera",
			"translation":[
				0.2335624098777771,
				0.8136788010597229,
				7.337150573730469
			]
		},
		{
			"children":[
				0,
				2
			],
			"name":"Scene Collection"
		}
	],
	"cameras":[
		{
			"name":"Camera.001",
			"perspective":{
				"aspectRatio":1.7777777777777777,
				"yfov":1,
				"zfar":100,
				"znear":0.10000000149011612
			},
			"type":"perspective"
		}
	],
	"materials":[
		{
			"doubleSided":true,
			"name":"Floor",
			"pbrMetallicRoughness":{
				"baseColorTexture":{
					"index":0
				},
				"metallicFactor":0,
				"roughnessFactor":0.5
			}
		},
		{
			"doubleSided":true,
			"name":"Box",
			"pbrMetallicRoughness":{
				"baseColorTexture":{
					"index":1
				},
				"metallicFactor":0,
				"roughnessFactor":0.5
			}
		}
	],
	"meshes":[
		{
			"name":"Floor",
			"primitives":[
				{
					"attributes":{
						"POSITION":0,
						"NORMAL":1,
						"TEXCOORD_0":2
					},
					"indices":3,
					"material":0
				}
			]
		},
		{
			"name":"B\u00e9zierCircle.003",
			"primitives":[
				{
					"attributes":{
						"POSITION":4,
						"NORMAL":5,
						"TEXCOORD_0":6
					},
					"indices":7,
					"material":1
				}
			]
		}
	],
	"textures":[
		{
			"sampler":0,
			"source":0
		},
		{
			"sampler":0,
			"source":1
		}
	],
	"images":[
		{
			"mimeType":"image/jpeg",
			"name":"Floor",
			"uri":"Floor.jpg"
		},
		{
			"mimeType":"image/jpeg",
			"name":"carbonFiber",
			"uri":"carbonFiber.jpg"
		}
	],
	"accessors":[
		{
			"bufferView":0,
			"componentType":5126,
			"count":4,
			"max":[
				10,
				0,
				10
			],
			"min":[
				-10,
				0,
				-10
			],
			"type":"VEC3"
		},
		{
			"bufferView":1,
			"componentType":5126,
			"count":4,
			"type":"VEC3"
		},
		{
			"bufferView":2,
			"componentType":5126,
			"count":4,
			"type":"VEC2"
		},
		{
			"bufferView":3,
			"componentType":5123,
			"count":6,
			"type":"SCALAR"
		},
		{
			"bufferView":4,
			"componentType":5126,
			"count":2204,
			"max":[
				1.3215861320495605,
				0.15000009536743164,
				1.3215861320495605
			],
			"min":[
				-1.3215861320495605,
				-3.001970052719116,
				-1.3215861320495605
			],
			"type":"VEC3"
		},
		{
			"bufferView":5,
			"componentType":5126,
			"count":2204,
			"type":"VEC3"
		},
		{
			"bufferView":6,
			"componentType":5126,
			"count":2204,
			"type":"VEC2"
		},
		{
			"bufferView":7,
			"componentType":5123,
			"count":11802,
			"type":"SCALAR"
		}
	],
	"bufferViews":[
		{
			"buffer":0,
			"byteLength":48,
			"byteOffset":0,
			"target":34962
		},
		{
			"buffer":0,
			"byteLength":48,
			"byteOffset":48,
			"target":34962
		},
		{
			"buffer":0,
			"byteLength":32,
			"byteOffset":96,
			"target":34962
		},
		{
			"buffer":0,
			"byteLength":12,
			"byteOffset":128,
			"target":34963
		},
		{
			"buffer":0,
			"byteLength":26448,
			"byteOffset":140,
			"target":34962
		},
		{
			"buffer":0,
			"byteLength":26448,
			"byteOffset":26588,
			"target":34962
		},
		{
			"buffer":0,
			"byteLength":17632,
			"byteOffset":53036,
			"target":34962
		},
		{
			"buffer":0,
			"byteLength":23604,
			"byteOffset":70668,
			"target":34963
		}
	],
	"samplers":[
		{
			"magFilter":9728,
			"minFilter":9984
		}
	],
	"buffers":[
		{
			"byteLength":94272,
			"uri":"hope.bin"
		}
	]
}
