{
	"asset":{
		"generator":"Khronos glTF Blender I/O v4.2.69",
		"version":"2.0"
	},
	"extensionsUsed":[
		"KHR_materials_unlit"
	],
	"scene":0,
	"scenes":[
		{
			"name":"Scene",
			"nodes":[
				0,
				2,
				3,
				4,
				5,
				6,
				7,
				8,
				9,
				10,
				11
			]
		}
	],
	"nodes":[
		{
			"mesh":0,
			"name":"Floor",
			"scale":[
				3.3809854984283447,
				6.12985897064209,
				2.6862735748291016
			]
		},
		{
			"mesh":1,
			"name":"Nozzle",
			"rotation":[
				-0.3800394535064697,
				0.5529465079307556,
				-0.5528522729873657,
				0.49414023756980896
			],
			"scale":[
				0.0686967596411705,
				0.30262890458106995,
				0.0686967596411705
			],
			"translation":[
				0.7469797134399414,
				-0.19496731460094452,
				-1.2740870714187622
			]
		},
		{
			"camera":0,
			"children":[
				1
			],
			"name":"Camera",
			"translation":[
				0.2335624098777771,
				0.8136788010597229,
				7.337150573730469
			]
		},
		{
			"mesh":2,
			"name":"Floor.001",
			"rotation":[
				-0.5,
				-0.5,
				-0.5,
				0.5
			],
			"scale":[
				1.6724928617477417,
				6.12985897064209,
				2.200439453125
			],
			"translation":[
				-17.49431037902832,
				0,
				1.3209422826766968
			]
		},
		{
			"mesh":3,
			"name":"Floor.002",
			"rotation":[
				-0.5,
				-0.5,
				-0.5,
				0.5
			],
			"scale":[
				1.6724928617477417,
				6.12985897064209,
				2.588984727859497
			],
			"translation":[
				17.808238983154297,
				0,
				1.3209422826766968
			]
		},
		{
			"mesh":4,
			"name":"Floor.003",
			"rotation":[
				0,
				-0.7071068286895752,
				-0.7071068286895752,
				0
			],
			"scale":[
				2.2576096057891846,
				6.1298604011535645,
				1.1566725969314575
			],
			"translation":[
				1.470022201538086,
				0,
				11.206605911254883
			]
		},
		{
			"mesh":5,
			"name":"Floor.004",
			"rotation":[
				0,
				-0.7071068286895752,
				-0.7071068286895752,
				0
			],
			"scale":[
				2.2576096057891846,
				6.1298604011535645,
				1.1566725969314575
			],
			"translation":[
				1.470022201538086,
				0,
				-12.873889923095703
			]
		},
		{
			"mesh":6,
			"name":"Roof.01",
			"rotation":[
				0,
				0.9520237445831299,
				0.3060241937637329,
				0
			],
			"scale":[
				2.2576098442077637,
				6.129859924316406,
				1.1566728353500366
			],
			"translation":[
				1.470022201538086,
				11.922006607055664,
				8.68242073059082
			]
		},
		{
			"mesh":7,
			"name":"Roof.02",
			"rotation":[
				0,
				0.952825129032135,
				-0.303520143032074,
				0
			],
			"scale":[
				2.2576088905334473,
				6.129859447479248,
				1.156672477722168
			],
			"translation":[
				1.470022201538086,
				11.922006607055664,
				-9.338685035705566
			]
		},
		{
			"mesh":8,
			"name":"Cube",
			"translation":[
				-4.0681023597717285,
				1.0241827964782715,
				0
			]
		},
		{
			"mesh":9,
			"name":"Sphere",
			"translation":[
				0,
				1.4221023321151733,
				0
			]
		},
		{
			"mesh":10,
			"name":"Plane",
			"rotation":[
				0.7071068286895752,
				0,
				0,
				0.7071068286895752
			],
			"translation":[
				3.422628402709961,
				1.7168958187103271,
				0
			]
		}
	],
	"cameras":[
		{
			"name":"Camera.001",
			"perspective":{
				"aspectRatio":1.7777777777777777,
				"yfov":1,
				"zfar":100,
				"znear":0.10000000149011612
			},
			"type":"perspective"
		}
	],
	"materials":[
		{
			"doubleSided":true,
			"name":"Floor",
			"pbrMetallicRoughness":{
				"baseColorTexture":{
					"index":0
				},
				"metallicFactor":0,
				"roughnessFactor":0.5
			}
		},
		{
			"doubleSided":true,
			"name":"Box",
			"pbrMetallicRoughness":{
				"baseColorTexture":{
					"index":1
				},
				"metallicFactor":0,
				"roughnessFactor":0.5
			}
		},
		{
			"doubleSided":true,
			"name":"Floor.001",
			"pbrMetallicRoughness":{
				"baseColorTexture":{
					"index":2
				},
				"metallicFactor":0,
				"roughnessFactor":0.5
			}
		},
		{
			"doubleSided":true,
			"name":"Floor.002",
			"pbrMetallicRoughness":{
				"baseColorTexture":{
					"index":3
				},
				"metallicFactor":0,
				"roughnessFactor":0.5
			}
		},
		{
			"doubleSided":true,
			"name":"Floor.003",
			"pbrMetallicRoughness":{
				"baseColorTexture":{
					"index":4
				},
				"metallicFactor":0,
				"roughnessFactor":0.5
			}
		},
		{
			"doubleSided":true,
			"name":"Floor.004",
			"pbrMetallicRoughness":{
				"baseColorTexture":{
					"index":5
				},
				"metallicFactor":0,
				"roughnessFactor":0.5
			}
		},
		{
			"doubleSided":true,
			"name":"Floor.005",
			"pbrMetallicRoughness":{
				"baseColorTexture":{
					"index":6
				},
				"metallicFactor":0,
				"roughnessFactor":0.5
			}
		},
		{
			"doubleSided":true,
			"name":"Floor.006",
			"pbrMetallicRoughness":{
				"baseColorTexture":{
					"index":7
				},
				"metallicFactor":0,
				"roughnessFactor":0.5
			}
		},
		{
			"doubleSided":true,
			"extensions":{
				"KHR_materials_unlit":{}
			},
			"name":"Material.002",
			"pbrMetallicRoughness":{
				"baseColorTexture":{
					"index":8
				},
				"metallicFactor":0,
				"roughnessFactor":0.9
			}
		},
		{
			"doubleSided":true,
			"extensions":{
				"KHR_materials_unlit":{}
			},
			"name":"Material.003",
			"pbrMetallicRoughness":{
				"baseColorTexture":{
					"index":9
				},
				"metallicFactor":0,
				"roughnessFactor":0.9
			}
		},
		{
			"doubleSided":true,
			"extensions":{
				"KHR_materials_unlit":{}
			},
			"name":"Material.001",
			"pbrMetallicRoughness":{
				"baseColorTexture":{
					"index":10
				},
				"metallicFactor":0,
				"roughnessFactor":0.9
			}
		}
	],
	"meshes":[
		{
			"name":"Floor",
			"primitives":[
				{
					"attributes":{
						"POSITION":0,
						"NORMAL":1,
						"TEXCOORD_0":2
					},
					"indices":3,
					"material":0
				}
			]
		},
		{
			"name":"B\u00e9zierCircle.003",
			"primitives":[
				{
					"attributes":{
						"POSITION":4,
						"NORMAL":5,
						"TEXCOORD_0":6
					},
					"indices":7,
					"material":1
				}
			]
		},
		{
			"name":"Floor.001",
			"primitives":[
				{
					"attributes":{
						"POSITION":8,
						"NORMAL":9,
						"TEXCOORD_0":10
					},
					"indices":3,
					"material":2
				}
			]
		},
		{
			"name":"Floor.002",
			"primitives":[
				{
					"attributes":{
						"POSITION":11,
						"NORMAL":12,
						"TEXCOORD_0":13
					},
					"indices":3,
					"material":3
				}
			]
		},
		{
			"name":"Floor.003",
			"primitives":[
				{
					"attributes":{
						"POSITION":14,
						"NORMAL":15,
						"TEXCOORD_0":16
					},
					"indices":3,
					"material":4
				}
			]
		},
		{
			"name":"Floor.004",
			"primitives":[
				{
					"attributes":{
						"POSITION":17,
						"NORMAL":18,
						"TEXCOORD_0":19
					},
					"indices":3,
					"material":5
				}
			]
		},
		{
			"name":"Floor.005",
			"primitives":[
				{
					"attributes":{
						"POSITION":20,
						"NORMAL":21,
						"TEXCOORD_0":22
					},
					"indices":3,
					"material":6
				}
			]
		},
		{
			"name":"Floor.006",
			"primitives":[
				{
					"attributes":{
						"POSITION":23,
						"NORMAL":24,
						"TEXCOORD_0":25
					},
					"indices":3,
					"material":7
				}
			]
		},
		{
			"name":"Cube.001",
			"primitives":[
				{
					"attributes":{
						"POSITION":26,
						"NORMAL":27,
						"TEXCOORD_0":28
					},
					"indices":29,
					"material":8
				}
			]
		},
		{
			"name":"Sphere",
			"primitives":[
				{
					"attributes":{
						"POSITION":30,
						"NORMAL":31,
						"TEXCOORD_0":32
					},
					"indices":33,
					"material":9
				}
			]
		},
		{
			"name":"Plane",
			"primitives":[
				{
					"attributes":{
						"POSITION":34,
						"NORMAL":35,
						"TEXCOORD_0":36
					},
					"indices":37,
					"material":10
				}
			]
		}
	],
	"textures":[
		{
			"sampler":0,
			"source":0
		},
		{
			"sampler":0,
			"source":1
		},
		{
			"sampler":1,
			"source":2
		},
		{
			"sampler":1,
			"source":2
		},
		{
			"sampler":1,
			"source":2
		},
		{
			"sampler":1,
			"source":2
		},
		{
			"sampler":1,
			"source":3
		},
		{
			"sampler":1,
			"source":3
		},
		{
			"sampler":0,
			"source":4
		},
		{
			"sampler":1,
			"source":5
		},
		{
			"sampler":0,
			"source":6
		}
	],
	"images":[
		{
			"mimeType":"image/jpeg",
			"name":"concreteTexture",
			"uri":"concreteTexture.jpg"
		},
		{
			"mimeType":"image/jpeg",
			"name":"Poliigon_PlasticMoldDryBlast_7495_Metallic",
			"uri":"Poliigon_PlasticMoldDryBlast_7495_Metallic.jpg"
		},
		{
			"mimeType":"image/jpeg",
			"name":"wallTexture",
			"uri":"wallTexture.jpg"
		},
		{
			"mimeType":"image/jpeg",
			"name":"metalRoof",
			"uri":"metalRoof.jpg"
		},
		{
			"mimeType":"image/jpeg",
			"name":"chill",
			"uri":"chill.jpg"
		},
		{
			"mimeType":"image/jpeg",
			"name":"onlyfans",
			"uri":"onlyfans.jpg"
		},
		{
			"mimeType":"image/jpeg",
			"name":"anime1",
			"uri":"anime1.jpg"
		}
	],
	"accessors":[
		{
			"bufferView":0,
			"componentType":5126,
			"count":4,
			"max":[
				10,
				0,
				10
			],
			"min":[
				-10,
				0,
				-10
			],
			"type":"VEC3"
		},
		{
			"bufferView":1,
			"componentType":5126,
			"count":4,
			"type":"VEC3"
		},
		{
			"bufferView":2,
			"componentType":5126,
			"count":4,
			"type":"VEC2"
		},
		{
			"bufferView":3,
			"componentType":5123,
			"count":6,
			"type":"SCALAR"
		},
		{
			"bufferView":4,
			"componentType":5126,
			"count":2204,
			"max":[
				1.3215861320495605,
				0.15000009536743164,
				1.3215861320495605
			],
			"min":[
				-1.3215861320495605,
				-3.001970052719116,
				-1.3215861320495605
			],
			"type":"VEC3"
		},
		{
			"bufferView":5,
			"componentType":5126,
			"count":2204,
			"type":"VEC3"
		},
		{
			"bufferView":6,
			"componentType":5126,
			"count":2204,
			"type":"VEC2"
		},
		{
			"bufferView":7,
			"componentType":5123,
			"count":11802,
			"type":"SCALAR"
		},
		{
			"bufferView":8,
			"componentType":5126,
			"count":4,
			"max":[
				10,
				0,
				10
			],
			"min":[
				-10,
				0,
				-10
			],
			"type":"VEC3"
		},
		{
			"bufferView":9,
			"componentType":5126,
			"count":4,
			"type":"VEC3"
		},
		{
			"bufferView":10,
			"componentType":5126,
			"count":4,
			"type":"VEC2"
		},
		{
			"bufferView":11,
			"componentType":5126,
			"count":4,
			"max":[
				10,
				0,
				10
			],
			"min":[
				-10,
				0,
				-10
			],
			"type":"VEC3"
		},
		{
			"bufferView":12,
			"componentType":5126,
			"count":4,
			"type":"VEC3"
		},
		{
			"bufferView":13,
			"componentType":5126,
			"count":4,
			"type":"VEC2"
		},
		{
			"bufferView":14,
			"componentType":5126,
			"count":4,
			"max":[
				10,
				0,
				10
			],
			"min":[
				-10,
				0,
				-10
			],
			"type":"VEC3"
		},
		{
			"bufferView":15,
			"componentType":5126,
			"count":4,
			"type":"VEC3"
		},
		{
			"bufferView":16,
			"componentType":5126,
			"count":4,
			"type":"VEC2"
		},
		{
			"bufferView":17,
			"componentType":5126,
			"count":4,
			"max":[
				10,
				0,
				10
			],
			"min":[
				-10,
				0,
				-10
			],
			"type":"VEC3"
		},
		{
			"bufferView":18,
			"componentType":5126,
			"count":4,
			"type":"VEC3"
		},
		{
			"bufferView":19,
			"componentType":5126,
			"count":4,
			"type":"VEC2"
		},
		{
			"bufferView":20,
			"componentType":5126,
			"count":4,
			"max":[
				10,
				0,
				10
			],
			"min":[
				-10,
				0,
				-10
			],
			"type":"VEC3"
		},
		{
			"bufferView":21,
			"componentType":5126,
			"count":4,
			"type":"VEC3"
		},
		{
			"bufferView":22,
			"componentType":5126,
			"count":4,
			"type":"VEC2"
		},
		{
			"bufferView":23,
			"componentType":5126,
			"count":4,
			"max":[
				10,
				0,
				10
			],
			"min":[
				-10,
				0,
				-10
			],
			"type":"VEC3"
		},
		{
			"bufferView":24,
			"componentType":5126,
			"count":4,
			"type":"VEC3"
		},
		{
			"bufferView":25,
			"componentType":5126,
			"count":4,
			"type":"VEC2"
		},
		{
			"bufferView":26,
			"componentType":5126,
			"count":24,
			"max":[
				1,
				1,
				1
			],
			"min":[
				-1,
				-1,
				-1
			],
			"type":"VEC3"
		},
		{
			"bufferView":27,
			"componentType":5126,
			"count":24,
			"type":"VEC3"
		},
		{
			"bufferView":28,
			"componentType":5126,
			"count":24,
			"type":"VEC2"
		},
		{
			"bufferView":29,
			"componentType":5123,
			"count":36,
			"type":"SCALAR"
		},
		{
			"bufferView":30,
			"componentType":5126,
			"count":1984,
			"max":[
				0.9999997019767761,
				1,
				0.9999993443489075
			],
			"min":[
				-0.9999990463256836,
				-1,
				-1
			],
			"type":"VEC3"
		},
		{
			"bufferView":31,
			"componentType":5126,
			"count":1984,
			"type":"VEC3"
		},
		{
			"bufferView":32,
			"componentType":5126,
			"count":1984,
			"type":"VEC2"
		},
		{
			"bufferView":33,
			"componentType":5123,
			"count":2880,
			"type":"SCALAR"
		},
		{
			"bufferView":34,
			"componentType":5126,
			"count":4,
			"max":[
				1,
				0,
				1
			],
			"min":[
				-1,
				0,
				-1
			],
			"type":"VEC3"
		},
		{
			"bufferView":35,
			"componentType":5126,
			"count":4,
			"type":"VEC3"
		},
		{
			"bufferView":36,
			"componentType":5126,
			"count":4,
			"type":"VEC2"
		},
		{
			"bufferView":37,
			"componentType":5123,
			"count":6,
			"type":"SCALAR"
		}
	],
	"bufferViews":[
		{
			"buffer":0,
			"byteLength":48,
			"byteOffset":0,
			"target":34962
		},
		{
			"buffer":0,
			"byteLength":48,
			"byteOffset":48,
			"target":34962
		},
		{
			"buffer":0,
			"byteLength":32,
			"byteOffset":96,
			"target":34962
		},
		{
			"buffer":0,
			"byteLength":12,
			"byteOffset":128,
			"target":34963
		},
		{
			"buffer":0,
			"byteLength":26448,
			"byteOffset":140,
			"target":34962
		},
		{
			"buffer":0,
			"byteLength":26448,
			"byteOffset":26588,
			"target":34962
		},
		{
			"buffer":0,
			"byteLength":17632,
			"byteOffset":53036,
			"target":34962
		},
		{
			"buffer":0,
			"byteLength":23604,
			"byteOffset":70668,
			"target":34963
		},
		{
			"buffer":0,
			"byteLength":48,
			"byteOffset":94272,
			"target":34962
		},
		{
			"buffer":0,
			"byteLength":48,
			"byteOffset":94320,
			"target":34962
		},
		{
			"buffer":0,
			"byteLength":32,
			"byteOffset":94368,
			"target":34962
		},
		{
			"buffer":0,
			"byteLength":48,
			"byteOffset":94400,
			"target":34962
		},
		{
			"buffer":0,
			"byteLength":48,
			"byteOffset":94448,
			"target":34962
		},
		{
			"buffer":0,
			"byteLength":32,
			"byteOffset":94496,
			"target":34962
		},
		{
			"buffer":0,
			"byteLength":48,
			"byteOffset":94528,
			"target":34962
		},
		{
			"buffer":0,
			"byteLength":48,
			"byteOffset":94576,
			"target":34962
		},
		{
			"buffer":0,
			"byteLength":32,
			"byteOffset":94624,
			"target":34962
		},
		{
			"buffer":0,
			"byteLength":48,
			"byteOffset":94656,
			"target":34962
		},
		{
			"buffer":0,
			"byteLength":48,
			"byteOffset":94704,
			"target":34962
		},
		{
			"buffer":0,
			"byteLength":32,
			"byteOffset":94752,
			"target":34962
		},
		{
			"buffer":0,
			"byteLength":48,
			"byteOffset":94784,
			"target":34962
		},
		{
			"buffer":0,
			"byteLength":48,
			"byteOffset":94832,
			"target":34962
		},
		{
			"buffer":0,
			"byteLength":32,
			"byteOffset":94880,
			"target":34962
		},
		{
			"buffer":0,
			"byteLength":48,
			"byteOffset":94912,
			"target":34962
		},
		{
			"buffer":0,
			"byteLength":48,
			"byteOffset":94960,
			"target":34962
		},
		{
			"buffer":0,
			"byteLength":32,
			"byteOffset":95008,
			"target":34962
		},
		{
			"buffer":0,
			"byteLength":288,
			"byteOffset":95040,
			"target":34962
		},
		{
			"buffer":0,
			"byteLength":288,
			"byteOffset":95328,
			"target":34962
		},
		{
			"buffer":0,
			"byteLength":192,
			"byteOffset":95616,
			"target":34962
		},
		{
			"buffer":0,
			"byteLength":72,
			"byteOffset":95808,
			"target":34963
		},
		{
			"buffer":0,
			"byteLength":23808,
			"byteOffset":95880,
			"target":34962
		},
		{
			"buffer":0,
			"byteLength":23808,
			"byteOffset":119688,
			"target":34962
		},
		{
			"buffer":0,
			"byteLength":15872,
			"byteOffset":143496,
			"target":34962
		},
		{
			"buffer":0,
			"byteLength":5760,
			"byteOffset":159368,
			"target":34963
		},
		{
			"buffer":0,
			"byteLength":48,
			"byteOffset":165128,
			"target":34962
		},
		{
			"buffer":0,
			"byteLength":48,
			"byteOffset":165176,
			"target":34962
		},
		{
			"buffer":0,
			"byteLength":32,
			"byteOffset":165224,
			"target":34962
		},
		{
			"buffer":0,
			"byteLength":12,
			"byteOffset":165256,
			"target":34963
		}
	],
	"samplers":[
		{
			"magFilter":9729,
			"minFilter":9987
		},
		{
			"magFilter":9729,
			"minFilter":9987,
			"wrapS":33648,
			"wrapT":33648
		}
	],
	"buffers":[
		{
			"byteLength":165268,
			"uri":"hope.bin"
		}
	]
}
